<?xml version="1.0" encoding="utf-8"?>
<!-- Generator: Adobe Illustrator 22.1.0, SVG Export Plug-In . SVG Version: 6.00 Build 0)  -->
<svg version="1.1" id="Capa_1" xmlns="http://www.w3.org/2000/svg" xmlns:xlink="http://www.w3.org/1999/xlink" x="0px" y="0px"
	 viewBox="0 0 595.3 333.1" style="enable-background:new 0 0 595.3 333.1;" xml:space="preserve">
<style type="text/css">
	.st0{fill:#D1E9F6;}
	.st1{fill:#E3F1F9;}
	.st2{fill:#BD5A52;}
	.st3{fill:#31B0D3;}
	.st4{fill:#1D96D2;}
	.st5{fill:none;stroke:#95CCF0;stroke-width:6;}
	.st6{fill:#16427F;}
	.st7{fill:#5699CA;}
	.st8{fill:#164280;}
	.st9{fill:#C5E6F2;}
	.st10{fill:#89B3D9;}
	.st11{fill:#E3F1F8;}
	.st12{fill:#A6ACAE;stroke:#466294;stroke-miterlimit:10;}
	.st13{fill:#2258A4;}
	.st14{fill:none;stroke:#161615;stroke-width:2;stroke-miterlimit:10;}
	.st15{fill:none;stroke:#8FAFD2;stroke-width:2.5;stroke-linecap:round;stroke-miterlimit:10;}
	.st16{fill:#D3ECF6;}
	.st17{fill:#FFFFFF;}
	.st18{fill:#1C4490;}
	.st19{fill:#212323;}
	.st20{fill:#141416;}
	.st21{fill:#333233;}
	.st22{fill:#87B2DB;}
	.st23{fill:#AF1917;}
	.st24{fill:#F0D700;}
	.st25{fill:#68A82F;}
	.st26{fill:#040505;}
	.st27{fill:#182C4B;}
</style>
<g id="Grupo_74" transform="translate(260.496 -450.681)">
	<path id="Trazado_166" class="st0" d="M-226.6,526.6c4.4,3.5,7.2,5.5,11.5,7.9c3.8,2.6,7.9,4.6,12,6.8l0,0l0.3-0.2
		c0.3-0.1,0.4-0.3,0.7-0.4c1.9-1.3,3.8-2.7,5.8-4.2c-2.6-2.8-4.7-5.9-7.6-8.1c0,0-0.5-2,0.5-2.3c2.9,3.1,5.9,6.2,8.8,9.3l6-3.4
		l1.3-0.9c-1.1-3.8-2.6-6.9-4.4-11.1c-1.3-2.3-2.6-4.7-4-7c-3.3-5.4-7.7-10.1-12.7-14.4c-3.5-2.5-6.3-4.6-10.3-6.5
		c-0.8-0.4-1.6-0.8-2.9-1.4c-6.5,4.5-13.2,9-20.1,13c1.6,6.4,5.1,11.7,9.5,17.3C-229.1,524.3-230,523.3-226.6,526.6"/>
	<path id="Trazado_167" class="st1" d="M-211.5,507.3c0,4.9-4.7,8.8-10.6,8.8c-5.9,0-10.8-4.1-10.7-9c0-4.9,4.8-8.8,10.7-8.8
		C-216.2,498.3-211.4,502.3-211.5,507.3z"/>
	<path id="Trazado_168" class="st2" d="M-203.1,541.4c-4.1-2.2-8.3-4.2-12-6.8c-1.4,6.2,1.7,12,5.2,15.6c0.9,0.8,1.8,1.4,2.8,2.2
		C-205.7,548.5-204,545-203.1,541.4z"/>
	<path id="Trazado_169" class="st2" d="M-191.5,520c1.8,4.1,3.2,7.3,4.4,11.1c4.4,0.2,8.8-0.1,13.3-0.6
		C-177.7,524.5-182.5,519.8-191.5,520z"/>
	<path id="Trazado_170" class="st2" d="M-188.4,531.9l-6,3.4c-3-3.1-5.9-6.2-8.8-9.3c-0.6,0.2-1.2,0.5-1.7,0.9
		c0.4,0.5,0.8,1,1.3,1.5c2.7,2.5,5,5.4,7.6,8.1c-2.1,1.5-4,2.8-5.8,4.2c1.1,1.2,2.2,1.1,3.5,0.2c1.2-0.9,3.1-1.4,4.2-2.2
		c0.8,0.2,3.7,3.2,3.7,3.2c0.4,0.1,0.8-0.5,1.4-0.7c-1.4-1.6-2.4-2.7-3.4-3.9c1-1.2,2.5-2,3.8-2.7
		C-187.5,533.8-187.4,533-188.4,531.9z"/>
	<path id="Trazado_171" class="st2" d="M-241.6,503.6c6.9-4.1,13.6-8.5,20.1-13c-0.7-0.3-1.2-0.6-1.8-0.8c-6.4-2.6-12.6-4.8-20-5.2
		C-244.4,491.2-244.1,497.5-241.6,503.6z"/>
	<path id="Trazado_172" class="st2" d="M-211.5,507.3c0-5.1-4.7-9.1-10.7-9c-5.9,0-10.7,4-10.7,8.8c0,5,4.8,9,10.7,9
		C-216.2,516.2-211.5,512.3-211.5,507.3z M-225.1,513.4c-4.5-1.2-5.7-5.1-4.8-8c1.1-3.3,5.4-5.3,9.3-4.5c5.2,1,7.7,4.6,6.2,8.8
		C-215.7,513.1-220.7,514.8-225.1,513.4L-225.1,513.4z"/>
	<path id="Trazado_173" class="st3" d="M-220.6,500.8c-3.9-0.8-8.2,1.2-9.3,4.5c-1,2.9,0.2,6.8,4.8,8c0.7-0.9,1.3-1.8,2-2.7
		C-220.9,507.6-219.7,504.4-220.6,500.8z"/>
	<path id="Trazado_174" class="st4" d="M-220.6,500.8c0.9,3.6-0.4,6.8-2.5,9.8c-0.7,0.9-1.3,1.8-2,2.7c4.4,1.5,9.4-0.3,10.7-3.8
		C-212.9,505.4-215.4,501.8-220.6,500.8z"/>
</g>
<path id="Trazado_198" class="st5" d="M169.3,136c0,0,38.7,13.8,18.9,41.8s-60.1-3.7-94.5,14.8S43,227.4,49,256.9
	c6,29.6,9.5,40.6,0,53.9s-53.3,11.1-53.3,11.1"/>
<g id="Grupo_75" transform="translate(595.617 -173.853)">
	<path id="Trazado_175" class="st6" d="M-478.1,321.8l1.9-3.5l14.1,5l-1.4,3.5L-478.1,321.8z"/>
	<path id="Trazado_176" class="st6" d="M-453,329.2l2-2.3l14.6,4.6l-1.6,3.8L-453,329.2z"/>
	<path id="Trazado_177" class="st7" d="M-466.4,271.6c-4,10-7.7,19.8-11.2,29.5c-0.3,0.8-0.6,1.9-0.2,3.1c0.6,1.8,2.6,2.7,3.4,3
		c3.5,1.6,20.6,6.9,44.2,13.5c1,0.3,2.4,0.6,3.6,0.1c1.4-0.6,2-2,2.2-2.5c1.1-2.8,8.1-21.4,17.7-47c0.3-0.7,0.4-1.5,0.1-2.3
		c-0.3-0.9-1.2-1.8-3.1-2.5c-3.1-1.2-20.5-6.6-44.6-13.8c-0.8-0.3-1.7-0.4-2.6-0.2c-1,0.2-1.9,0.8-2.4,1.6
		C-461.7,259.8-464.1,265.7-466.4,271.6z"/>
	<path id="Trazado_178" class="st8" d="M-413.1,269.1l1.9,1.1l-6,14.4l-2-0.3L-413.1,269.1z"/>
	<path id="Trazado_179" class="st9" d="M-453,256.5c-2.3,5.7-4.1,10.2-5.3,13.3c-1,2.5-1.9,4.5-3,7.5c-0.9,2.7-1.3,6.7-2.2,9.4
		c-1.3,0-3,0-3.7,1.3c-0.5,1-0.7,1.6-1.1,2.9c-1.3,3.9-3.1,9.2-2.9,10.4l11.6,6.8l-11.6-5.1l-6,15.9l14.8,5.1l6.1-15.7l10.2,2.7
		l-5.7,16l15.1,5l7.1-17l-11.2-1.6l13.1,0.6c1.9-5.1,3.6-9.4,3.6-9.4c0.6-0.8,1.7-3.1,1.4-5.1c-0.2-1.2-0.7-1.5-1.2-2.1l2.7-6
		l3.4-9.4l5.3-13.5c-6.4-2.7-12.9-5-19.6-7C-438.9,259.5-445.9,257.8-453,256.5z"/>
	<path id="Trazado_180" class="st10" d="M-451.1,229.2c0.4-0.7,8-14.8,24.7-16.1c1.7-0.1,13.1-0.9,22.1,6.7
		c7.8,6.6,10.8,16.8,7.9,26.6c1.6,0.7,4.2,1.7,5.8,2.4c-1.9,4.8-3.2,7.7-5.1,11.4l-6-2.5c-1,1.9-4,6.8-10.1,9
		c-1.9,0.7-5.2,1.5-13,0.2c-10.2-1.7-22.6-3.9-27.8-13.2c-1.1-2-2.8-5.9-2-11.8c-2.1-0.7-3.8-1.7-6-2.7c1.6-3.8,3.4-7.7,5.1-11.5
		C-453.7,228.3-452.7,228.8-451.1,229.2z"/>
	<path id="Trazado_181" class="st11" d="M-494.2,245.1c-2.9-2.9-5.7-5.8-8.4-8.7c-0.5-0.7-0.8-1.6-0.7-2.5c0.1-0.7,0.4-1.3,0.8-1.9
		c1.7-2.3,5.2-5,6-5.6c0.7-0.4,1.4-0.5,2.2-0.5c0.6,0.1,1.3,0.3,1.8,0.6c2.2,1.3,5.8,4.6,6.2,5l1.4-2.8c0.2-0.4,0.5-0.6,0.9-0.8
		c1-0.3,2,0.4,2.5,1c1,1.2,0.2,2.8,0.2,2.9l-1.4,2.7l16,13.5c2.9,1.5,4.5,3,7.4,4.6c1.6,0.7,5,2.5,6.6,3.2c-2,4.4-5.4,7.6-7.4,12
		c-5.7-2.4-10.6-4.5-16.3-6.9l-2.9-1.8C-484.2,254.8-489.2,250.2-494.2,245.1z"/>
	<path id="Trazado_182" class="st11" d="M-411.1,270l-7.1,15l1.4,3.5l3.4,18.1l-2.4,5c-0.2,0.3-0.8,1.7-0.1,3.1
		c0.2,0.4,0.7,1.6,1.9,1.7c0.9,0.1,2-0.6,2.4-1.8c0.1,1.4,0.6,2.7,1.3,3.9c0.4,0.8,0.9,1.6,1.6,2.2c2.5,2,8.1,1.4,11.1-1.4
		c0.3-0.3,2.3-2.1,2.4-4.7c0-0.8-0.1-1.6-0.4-2.4c-0.5-1.8-1.2-4.2-2.2-7.5l-3.1-19.2c-4.4,1-10.3,2-14.9,2.9c-0.1,0-0.1,0-0.1-0.1
		c0,0,0-0.1,0.1-0.1c3.7-1.6,8.6-3.2,12.1-4.7L-411.1,270z"/>
	<path id="Trazado_183" class="st12" d="M-450.2,270.2l25.2,8l-4.7,13.1l-25.9-7.8L-450.2,270.2z"/>
	<path id="Trazado_184" class="st13" d="M-444.1,276.4c2.8,0.8,6,1.8,8.9,2.7c-0.6,1.8-1.7,3.7-2.3,5.5c-3.1-0.9-5.7-1.9-8.8-2.8
		C-445.5,280-445,278.1-444.1,276.4z"/>
	<line id="Línea_7" class="st14" x1="-432.8" y1="278.3" x2="-427.9" y2="280.1"/>
	<line id="Línea_8" class="st14" x1="-433.5" y1="280.6" x2="-428.7" y2="282.4"/>
	<line id="Línea_9" class="st14" x1="-434.5" y1="282.6" x2="-429.6" y2="284.4"/>
	<line id="Línea_10" class="st14" x1="-435.4" y1="284.7" x2="-430.5" y2="286.5"/>
	<line id="Línea_11" class="st14" x1="-436.3" y1="286.7" x2="-431.4" y2="288.5"/>
	<line id="Línea_12" class="st15" x1="-460.1" y1="270.5" x2="-451.4" y2="273.3"/>
	<line id="Línea_13" class="st15" x1="-462.9" y1="278.2" x2="-454.5" y2="280.9"/>
	<line id="Línea_14" class="st15" x1="-428.5" y1="288.3" x2="-420.5" y2="291.3"/>
	<line id="Línea_15" class="st15" x1="-425.8" y1="280.7" x2="-417.9" y2="283.5"/>
	<path id="Trazado_185" class="st16" d="M-478.6,320.3l-4.1,12.4c1.7,1,2.4,1.9,4.6,4.4c2.5,2.7,5.5,6.1,6.2,7.9l10.6-19.2
		L-478.6,320.3z"/>
	<path id="Trazado_186" class="st16" d="M-453.1,328l-6.7,19.6l15.2,4.4l8.7-18.7L-453.1,328z"/>
	<path id="Trazado_187" class="st17" d="M-403.6,260.7c-2.8,3.8-5.2,4.9-7.4,5.6c-4.6,1.5-9.7,1.7-20.6-0.9
		c-12.9-3.1-17.8-8.4-18.2-15.2c-0.2-3.9,4.5-13.2,6.1-17.4c1.3-3.3,4.8-12.4,14.5-15.5c5.8-1.8,15.6-2.5,22.3,0.7
		C-406.9,217.9-382.4,232-403.6,260.7z"/>
	<path id="Trazado_188" class="st18" d="M-479.1,259.2l12.1-11.3l-10.1,12.6"/>
	<path id="Trazado_189" class="st18" d="M-458,269.1l-2.1-1.2l7.2-11.3L-458,269.1z"/>
	<path id="Trazado_190" class="st8" d="M-404.4,283.6l2.3,2l-13.4,2.6c0,0-0.1,0-0.1-0.1c0,0,0-0.1,0-0.1L-404.4,283.6z"/>
	<path id="Trazado_191" class="st19" d="M-450.3,234c0.7-1.5,4.6-9.3,14.3-12.3c6.7-2.1,12.5-0.8,16.4,0.2
		c3.6,0.9,12.9,3.2,18.1,11.2c0.9,1.3,3.9,6.2,3.3,12.7c-0.6,6.6-5.1,15-13.7,17.3c-2.7,0.7-5.2,0.4-10.2-0.3
		c-10.7-1.5-17.9-5.2-20.8-6.9c-4.7-2.7-7.1-4.1-8.6-6.9C-454.8,242.9-451.6,236.4-450.3,234z"/>
	<path id="Trazado_192" class="st20" d="M-450.4,233.9c0.7-1.5,4.9-9,13.1-11.8c0,0-8.6,10.3-7.1,21.8c0.8,6.8,6.3,9.6,15.7,13.5
		c13.2,5.4,22.6,2.7,22.6,2.7c-5.8,4.1-9.8,3.5-16.2,2.5c-11.8-1.9-15.7-4-20.8-6.9c-4.7-2.7-7-4.1-8.6-6.9
		C-454.8,242.8-451.6,236.3-450.4,233.9z"/>
	<path id="Trazado_193" class="st21" d="M-411.2,234.6c-0.5-0.6-1.8-2.4-1.1-3.3c0.6-0.7,2.4-0.3,2.8-0.2c4.4,0.9,6.5,5.6,7.3,7.2
		c0.8,1.8,0.9,3.1,0.9,3.6c0,0.5-0.2,1.5-1.1,1.9s-2.1,0.1-2.8-1.3s-1-2.9-1.6-3.7C-408.2,237-409.6,236.8-411.2,234.6z"/>
	<path id="Trazado_194" class="st22" d="M-478.9,334.7c-2.3-2.8-5.2-4.2-7.2-3.5c-0.9,0.3-1.5,1-1.9,1.5c-1.8,2.2-1.6,4.8-1.5,5.7
		l17.8,6.4L-478.9,334.7z"/>
	<path id="Trazado_195" class="st22" d="M-456.4,348.9c1.5-1.2,4.7-3.4,9.3-3.9c2.3-0.2,6.3-0.7,7.9,1.5c1.4,1.8,0.7,4.9-1.7,7.4
		L-456.4,348.9z"/>
	<ellipse id="Elipse_9" class="st23" cx="-447.4" cy="275.1" rx="1" ry="0.9"/>
	<ellipse id="Elipse_10" class="st24" cx="-448.7" cy="277.8" rx="1" ry="0.9"/>
	<ellipse id="Elipse_11" class="st25" cx="-449.7" cy="280.5" rx="1" ry="0.9"/>
	<path id="Trazado_196" class="st8" d="M-413.5,306l15.5-2.8l0.1,0.7L-413.5,306z"/>
	<path id="Trazado_197" class="st8" d="M-482.8,234.6l-13.4,8.6l0.6,0.6L-482.8,234.6z"/>
	<ellipse id="Elipse_12" class="st26" cx="-454.1" cy="231.9" rx="0.8" ry="0.7"/>
	<ellipse id="Elipse_13" class="st27" cx="-456.6" cy="237.1" rx="1.5" ry="1.3"/>
	<ellipse id="Elipse_14" class="st26" cx="-394.9" cy="251.4" rx="0.8" ry="0.7"/>
	<ellipse id="Elipse_15" class="st27" cx="-396.8" cy="255.9" rx="1.7" ry="1.5"/>
</g>
</svg>
