<?xml version="1.0" encoding="utf-8"?>
<!-- Generator: Adobe Illustrator 23.0.0, SVG Export Plug-In . SVG Version: 6.00 Build 0)  -->
<svg version="1.1" id="Capa_1" xmlns="http://www.w3.org/2000/svg" xmlns:xlink="http://www.w3.org/1999/xlink" x="0px" y="0px"
	 viewBox="0 0 595.28 333.14" style="enable-background:new 0 0 595.28 333.14;" xml:space="preserve">
<style type="text/css">
	.st0{fill:none;stroke:#95CCF0;stroke-width:6;}
	.st1{fill:#16427F;}
	.st2{fill:#5699CA;}
	.st3{fill:#164280;}
	.st4{fill:#C5E6F2;}
	.st5{fill:#89B3D9;}
	.st6{fill:#E3F1F8;}
	.st7{fill:#A6ACAE;stroke:#466294;stroke-miterlimit:10;}
	.st8{fill:#2258A4;}
	.st9{fill:none;stroke:#161615;stroke-width:2;stroke-miterlimit:10;}
	.st10{fill:none;stroke:#8FAFD2;stroke-width:2.5;stroke-linecap:round;stroke-miterlimit:10;}
	.st11{fill:#D3ECF6;}
	.st12{fill:#FFFFFF;}
	.st13{fill:#1C4490;}
	.st14{fill:#212323;}
	.st15{fill:#141416;}
	.st16{fill:#333233;}
	.st17{fill:#87B2DB;}
	.st18{fill:#AF1917;}
	.st19{fill:#F0D700;}
	.st20{fill:#68A82F;}
	.st21{fill:#040505;}
	.st22{fill:#182C4B;}
</style>
<path id="Trazado_205" class="st0" d="M342.67,224.34c0,0,61.98-59.88,103.12-62.38c41.14-2.5,43.81,30.04,87.94,27.37
	c44.13-2.67,8.47-49.03,26.3-69.54s49.48-23.18,49.48-23.18"/>
<g id="Grupo_76" transform="matrix(0.799, 0.602, -0.602, 0.799, 467.877, 143.5)">
	<path id="Trazado_175" class="st1" d="M-34.65,159.65l-1.32-2.74l-10.05,3.97l0.98,2.8L-34.65,159.65z"/>
	<path id="Trazado_176" class="st1" d="M-52.55,165.52l-1.44-1.82l-10.44,3.65l1.11,3L-52.55,165.52z"/>
	<path id="Trazado_177" class="st2" d="M-42.96,119.92c2.83,7.89,5.49,15.67,8.01,23.34c0.33,0.79,0.38,1.67,0.15,2.49
		c-0.46,1.41-1.85,2.11-2.4,2.39c-2.49,1.26-14.74,5.44-31.56,10.7c-0.75,0.27-1.7,0.45-2.54,0.05c-1-0.48-1.41-1.56-1.57-2
		c-0.79-2.2-5.81-16.95-12.62-37.23c-0.23-0.58-0.26-1.21-0.1-1.81c0.24-0.74,0.88-1.43,2.2-2c2.19-0.95,14.67-5.25,31.82-10.91
		c0.57-0.27,1.21-0.34,1.83-0.2c0.72,0.19,1.33,0.66,1.7,1.3C-46.33,110.6-44.64,115.22-42.96,119.92z"/>
	<path id="Trazado_178" class="st3" d="M-81.04,117.92l-1.37,0.86l4.31,11.43l1.42-0.24L-81.04,117.92z"/>
	<path id="Trazado_179" class="st4" d="M-52.56,107.98c1.63,4.54,2.93,8.09,3.82,10.5c0.71,1.94,1.38,3.58,2.1,5.96
		c0.64,2.1,0.93,5.35,1.57,7.45c0.95,0,2.15,0,2.64,1c0.37,0.76,0.47,1.28,0.78,2.3c0.96,3.05,2.2,7.31,2.05,8.26l-8.32,5.42
		l8.32-4.06l4.26,12.61l-10.57,4.06l-4.35-12.41l-7.29,2.1l4.06,12.7l-10.76,3.96l-5.04-13.48l7.97-1.27l-9.35,0.49
		c-1.39-4.01-2.54-7.48-2.54-7.48c-0.41-0.65-1.24-2.43-1.03-4.03c0.12-0.95,0.5-1.21,0.88-1.68l-1.91-4.79l-2.45-7.48l-3.8-10.67
		c4.56-2.12,9.25-3.97,14.03-5.54C-62.6,110.3-57.61,108.99-52.56,107.98z"/>
	<path id="Trazado_180" class="st5" d="M-53.92,86.3c-0.26-0.55-5.71-11.69-17.61-12.77c-1.22-0.11-9.35-0.71-15.79,5.34
		c-5.55,5.22-7.68,13.34-5.61,21.11c-1.17,0.52-2.98,1.37-4.16,1.89c1.05,3.08,2.26,6.1,3.64,9.05l4.31-1.95
		c0.72,1.53,2.83,5.41,7.18,7.17c1.34,0.54,3.69,1.19,9.26,0.13c7.27-1.39,16.14-3.08,19.83-10.42c0.79-1.57,1.99-4.68,1.44-9.38
		c1.48-0.56,2.69-1.31,4.27-2.12c-1.17-3-2.46-6.09-3.63-9.08C-52.04,85.64-52.76,86-53.92,86.3z"/>
	<path id="Trazado_181" class="st6" d="M-23.13,98.94c2.1-2.33,4.1-4.63,6-6.91c0.37-0.59,0.55-1.29,0.5-1.99
		c-0.07-0.54-0.27-1.05-0.59-1.49c-1.23-1.84-3.71-3.96-4.26-4.42c-0.47-0.28-1.02-0.4-1.57-0.37c-0.46,0.05-0.9,0.22-1.27,0.49
		c-1.6,1.05-4.13,3.67-4.4,3.96L-29.74,86c-0.14-0.28-0.37-0.49-0.66-0.61c-0.69-0.24-1.43,0.34-1.76,0.81
		c-0.69,0.97-0.16,2.19-0.12,2.27l1,2.15l-11.45,10.68c-2.09,1.22-3.2,2.39-5.28,3.62c-1.14,0.59-3.6,1.95-4.75,2.54
		c1.45,3.49,3.86,6.04,5.31,9.53c4.08-1.89,7.54-3.58,11.62-5.47l2.05-1.47C-30.28,106.61-26.72,102.92-23.13,98.94z"/>
	<path id="Trazado_182" class="st6" d="M-82.49,118.61l5.09,11.86l-0.98,2.8l-2.41,14.33l1.7,3.97c0.36,0.77,0.39,1.66,0.09,2.45
		c-0.12,0.29-0.52,1.24-1.32,1.32c-0.67,0.06-1.41-0.51-1.71-1.44c-0.11,1.09-0.41,2.15-0.9,3.13c-0.27,0.64-0.66,1.22-1.15,1.71
		c-1.78,1.6-5.77,1.11-7.93-1.1c-0.24-0.25-1.61-1.7-1.71-3.76c-0.02-0.65,0.07-1.29,0.27-1.91c0.38-1.39,0.88-3.29,1.54-5.94
		l2.23-15.24c3.18,0.76,7.35,1.55,10.66,2.32c0.04,0.01,0.08-0.02,0.09-0.05c0.01-0.03-0.01-0.07-0.04-0.08
		c-2.65-1.24-6.14-2.51-8.65-3.74L-82.49,118.61z"/>
	<path id="Trazado_183" class="st7" d="M-54.57,118.78l-18.01,6.35l3.33,10.36l18.49-6.16L-54.57,118.78z"/>
	<path id="Trazado_184" class="st8" d="M-58.91,123.7c-2.02,0.65-4.31,1.47-6.33,2.12c0.42,1.47,1.24,2.93,1.66,4.4
		c2.22-0.75,4.04-1.5,6.26-2.25C-57.93,126.59-58.29,125.06-58.91,123.7z"/>
	<line id="Línea_7" class="st9" x1="-67" y1="125.23" x2="-70.49" y2="126.66"/>
	<line id="Línea_8" class="st9" x1="-66.44" y1="127.03" x2="-69.93" y2="128.47"/>
	<line id="Línea_9" class="st9" x1="-65.77" y1="128.64" x2="-69.26" y2="130.08"/>
	<line id="Línea_10" class="st9" x1="-65.11" y1="130.25" x2="-68.6" y2="131.69"/>
	<line id="Línea_11" class="st9" x1="-64.45" y1="131.86" x2="-67.94" y2="133.29"/>
	<line id="Línea_12" class="st10" x1="-47.45" y1="119.02" x2="-53.66" y2="121.29"/>
	<line id="Línea_13" class="st10" x1="-45.47" y1="125.16" x2="-51.5" y2="127.27"/>
	<line id="Línea_14" class="st10" x1="-70.01" y1="133.12" x2="-75.77" y2="135.49"/>
	<line id="Línea_15" class="st10" x1="-71.93" y1="127.13" x2="-77.63" y2="129.36"/>
	<path id="Trazado_185" class="st11" d="M-34.28,158.51l2.94,9.8c-1.22,0.79-1.73,1.53-3.31,3.45c-1.78,2.16-3.9,4.81-4.42,6.25
		l-7.57-15.24L-34.28,158.51z"/>
	<path id="Trazado_186" class="st11" d="M-52.48,164.61l4.76,15.57l-10.83,3.52l-6.2-14.79L-52.48,164.61z"/>
	<path id="Trazado_187" class="st12" d="M-87.85,111.24c1.98,2.98,3.73,3.84,5.29,4.41c3.27,1.19,6.91,1.37,14.73-0.73
		c9.23-2.48,12.72-6.64,13.01-12.07c0.17-3.07-3.22-10.49-4.35-13.78c-0.91-2.62-3.41-9.85-10.37-12.31
		c-4.14-1.46-11.16-1.95-15.93,0.58C-85.47,77.34-102.96,88.53-87.85,111.24z"/>
	<path id="Trazado_188" class="st13" d="M-33.9,110.12l-8.66-8.99l7.22,10.02"/>
	<path id="Trazado_189" class="st13" d="M-48.94,117.95l1.49-0.98l-5.11-8.99L-48.94,117.95z"/>
	<path id="Trazado_190" class="st3" d="M-87.22,129.44l-1.61,1.56l9.54,2.09c0.03,0.01,0.06-0.01,0.07-0.04
		c0.01-0.03-0.01-0.06-0.03-0.07L-87.22,129.44z"/>
	<path id="Trazado_191" class="st14" d="M-54.44,90.08c-0.53-1.18-3.3-7.35-10.18-9.77c-4.8-1.69-8.92-0.63-11.74,0.13
		c-2.59,0.7-9.21,2.5-12.92,8.86c-1.8,3.02-2.62,6.53-2.35,10.03c0.46,5.2,3.62,11.92,9.79,13.68c1.89,0.54,3.69,0.28,7.31-0.26
		c5.29-0.76,10.35-2.62,14.87-5.47c3.36-2.15,5.04-3.22,6.13-5.47C-51.26,97.15-53.57,92.01-54.44,90.08z"/>
	<path id="Trazado_192" class="st15" d="M-54.41,90.02c-0.53-1.18-3.47-7.11-9.37-9.39c0,0,6.11,8.18,5.09,17.3
		c-0.6,5.4-4.51,7.61-11.21,10.67c-9.44,4.3-16.13,2.16-16.13,2.16c4.12,3.22,6.97,2.81,11.57,1.99c8.44-1.51,11.21-3.19,14.86-5.49
		c3.37-2.13,5.01-3.25,6.11-5.51C-51.23,97.09-53.54,91.94-54.41,90.02z"/>
	<path id="Trazado_193" class="st16" d="M-82.41,90.63c0.32-0.5,1.27-1.94,0.78-2.59c-0.42-0.57-1.7-0.27-2.01-0.2
		c-3.16,0.74-4.67,4.41-5.19,5.67c-0.4,0.89-0.61,1.86-0.62,2.84c0.03,0.38,0.16,1.18,0.77,1.51s1.48,0.07,2.01-1.03
		c0.52-1.09,0.71-2.34,1.13-2.93C-84.53,92.46-83.53,92.35-82.41,90.63z"/>
	<path id="Trazado_194" class="st17" d="M-34.06,169.89c1.63-2.19,3.71-3.29,5.15-2.74c0.55,0.25,1.01,0.66,1.34,1.17
		c1.3,1.74,1.14,3.77,1.04,4.49l-12.72,5.08L-34.06,169.89z"/>
	<path id="Trazado_195" class="st17" d="M-50.13,181.15c-1.86-1.67-4.18-2.74-6.65-3.06c-1.65-0.19-4.48-0.52-5.64,1.21
		c-0.97,1.44-0.49,3.89,1.24,5.89L-50.13,181.15z"/>
	
		<ellipse id="Elipse_9" transform="matrix(2.551711e-06 1 -1 2.551711e-06 66.1316 179.2398)" class="st18" cx="-56.55" cy="122.69" rx="0.68" ry="0.69"/>
	
		<ellipse id="Elipse_10" transform="matrix(2.551438e-06 1 -1 2.551438e-06 69.2058 180.4427)" class="st19" cx="-55.62" cy="124.82" rx="0.68" ry="0.69"/>
	
		<ellipse id="Elipse_11" transform="matrix(2.551000e-06 1 -1 2.551000e-06 72.0294 181.8962)" class="st20" cx="-54.93" cy="126.96" rx="0.68" ry="0.69"/>
	<path id="Trazado_196" class="st3" d="M-80.73,147.2l-11.05-2.18l-0.08,0.56L-80.73,147.2z"/>
	<path id="Trazado_197" class="st3" d="M-31.28,90.61l9.54,6.78l-0.43,0.49L-31.28,90.61z"/>
	
		<ellipse id="Elipse_12" transform="matrix(2.551492e-06 1 -1 2.551492e-06 36.7044 140.1678)" class="st21" cx="-51.73" cy="88.44" rx="0.54" ry="0.54"/>
	
		<ellipse id="Elipse_13" transform="matrix(2.551059e-06 1 -1 2.551059e-06 42.5328 142.5474)" class="st22" cx="-50.01" cy="92.54" rx="1.06" ry="1.06"/>
	
		<ellipse id="Elipse_14" transform="matrix(2.551659e-06 1 -1 2.551659e-06 9.944 197.9371)" class="st21" cx="-94" cy="103.94" rx="0.54" ry="0.54"/>
	
		<ellipse id="Elipse_15" transform="matrix(2.552093e-06 1 -1 2.552093e-06 14.8617 200.1525)" class="st22" cx="-92.65" cy="107.51" rx="1.18" ry="1.19"/>
</g>
</svg>
