<?xml version="1.0" encoding="utf-8"?>
<!-- Generator: Adobe Illustrator 22.1.0, SVG Export Plug-In . SVG Version: 6.00 Build 0)  -->
<svg version="1.1" id="Capa_1" xmlns="http://www.w3.org/2000/svg" xmlns:xlink="http://www.w3.org/1999/xlink" x="0px" y="0px"
	 viewBox="0 0 595.3 333.1" style="enable-background:new 0 0 595.3 333.1;" xml:space="preserve">
<style type="text/css">
	.st0{opacity:0.85;}
	.st1{fill:#FDFDFD;stroke:#010202;}
	.st2{fill:#050607;stroke:#010202;}
</style>
<g id="Grupo_86" transform="translate(2046.403 174.813)" class="st0">
	<path id="Trazado_217" class="st1" d="M-1665.9-84.8c0.7,0.9,1.7,1.5,2.7,1.7c1.4,0.1,1.8,1.1,2.2,2.3c2.1,7.4,3.8,15,4.9,22.6
		c0.1,0.4,0.2,0.8-0.1,1.2c-2.7,3.6-3.2,8-3.4,12.4c-0.6,11.9-0.5,23.8-0.3,35.8c0.1,4.9,0.5,9.9,2.3,14.5c0.2,0.7,0.2,1.5-0.1,2.2
		c-3.3,15.9-8.4,31.1-16.3,45c-2.9,5-6.9,8.8-11.2,12.3c-8.9,7.2-19.1,11.5-29.6,14.8c-13.4,4.3-27.3,6.1-41.2,5.3
		c-9.8-0.5-19.5-2.4-28.9-5.7c-2.4-0.8-4.3-0.1-6.4,0.3c-2.8,0.6-5.6,1.5-8.5,2.4l4.9-9.4c0.2-0.4,0.7-0.6,0.4-1.2
		c-0.3,0.1-0.6,0.4-0.7,0.7c-3.1,3.3-5.7,7.1-8.8,10.8c-7-4.6-14.1-8.9-21.5-13.1c1.1-2.1,2.7-3.7,3.5-5.9l-0.1,0
		c0.4-0.1,0.7-0.3,0.4-0.8l0,0.1c0.5,0.2,0.4-0.1,0.4-0.4l0,0.1c0.7-0.2,0.7-1.1,1.2-1.4c0.4-0.1,0.8,0.5,1.7,0.1
		c-3.6-2.1-6.5-5.4-8.3-9.3l4.8-2.9l0.6-0.3c-0.2-0.2-0.6-0.2-0.8-0.1l-7.3,2.2c0-1.8-0.3-3.6-1.1-5.3c0.2,2-0.3,3.9-1.3,5.6
		c-2.2,3.6-6.1,3.5-8.2-0.1c-1.2-2.2-1.5-4.7-0.8-7.1c0.7-2.9,2.7-4.1,5.3-3.4c1.2,0.4,2.4,1.1,3.4,2l0.4,0.9c0.2-0.6,0.3-1-0.1-1.3
		c-0.8-2.3-2.6-4-4.7-4.7l2.6-3.8c-0.9,0.4-1.2,0-1.5-0.8c-3-8.2-5.3-16.6-7-25.2c-0.1-0.4-0.1-0.9,0-1.3c2.6-5.9,2.7-12.3,2.8-18.7
		c0.1-10.2,0.3-20.4-0.2-30.6c-0.1-3.8-0.7-7.5-1.8-11.1c-0.2-0.7-0.5-1.4-0.9-2c-1.5-1.6-1.2-3.3-0.8-5.2c1.2-7,2.8-13.8,4.8-20.6
		c0.3-1.1,0.7-1.8,1.9-1.9c1.2-0.1,2.3-0.7,3-1.8l0,0c2-1.4,2.3-3.8,2.7-6.1c1-5.6,2.7-10.9,3.9-16.4c0.2-0.8,0.7-1.6,1.1-2.2
		c5.2-8.7,11.4-16.7,18.4-23.7c5.4-5.3,11.7-9.3,18.7-12.7c-2.4,3.5-3.8,7.8-4,12.2c0,0.6-0.3,1.1-0.8,1.3
		c-21.7,14-33.6,35.7-40.2,61.3c-4.3,16.7-5.5,33.8-4.3,51.2c1.1,18.8,5.6,37.3,13,54.3c1.8,4.2,3.9,8.2,6.3,12
		c0.2,0.4,0.3,1.4,1.2,0.7c-0.3,0.7,0.1,1.5,0.7,1.8c0.2,0.1,0.4,0.1,0.7,0.1c-0.2,0-0.4,0.1-0.4,0.4c0,0.1,0.1,0.1,0.1,0.1
		c0.3,0,0.2-0.3,0.2-0.5c-0.7-0.3-1.2-1-1.4-1.9c-0.7-0.2-0.8-0.9-1.1-1.3c-7.7-13.3-12.5-27.8-15.2-43.1c-2.4-13.4-3.2-27-2.4-40.6
		c1.4-23.2,6.6-45.2,18.4-65c6-10.3,14.1-19,23.6-25.6c0.5-0.3,0.9-0.6,1.5-1c0.5,5.9,1.8,11.6,4.1,17c0.1,0.2,0.2,0.4,0.3,0.5
		c0.4-0.2,0.1-0.6,0.1-0.9c-1.6-6.5-2.8-13.1-2.3-19.9c0.2-4.1,1.5-8,3.8-11.3c1.5,10.7,4.6,20.6,8.1,30.6l-8.5,4.1
		c-0.5-2.2-1.5-0.7-2.3-0.3c-9.5,4.3-17.9,10.8-24.8,19.1c-9.8,11.8-16.3,26.5-18.6,42.3c-3.3,20.5-0.4,41.5,8.2,60.1
		c1,2.3,2.2,4.4,3.4,6.6c1.5,2.4,2.9,4.8,4.4,7.2c0.4-0.3,0.4,0.7,1.1,0.2c-0.5,0-0.4-1.1-1-0.1c0.3-0.1,0.4-0.3,0.2-0.7
		c-1.4-2.2-2.7-4.4-4.1-6.5c-0.2-0.3-0.4-0.4-0.5,0.1c0.8-0.8-0.1-1.3-0.4-1.8c-4.6-8.8-7.8-18.5-9.4-28.5
		c-1.7-10.3-2-20.8-0.6-31.2c1.9-15.1,6.8-28.8,15.4-40.9c10.8-15.2,25.1-24.3,42.2-28.4c12.9-3.1,25.8-2.9,38.9-1.9
		c12,0.8,23.7,4.8,34.1,11.6c16.7,11,27.3,27.2,32.1,47.5c6,25.2,3,49.3-9.1,71.9c-3,5.7-6.3,11.2-11.7,14.7
		c-4.3,2.8-8.9,5.2-13.6,7.1c-10.8,4.6-22.1,7.6-33.6,9c-9.7,1.1-19.4,1.1-29.1-0.1c-15-1.8-29.6-6.8-42.8-14.8
		c-0.6-0.4-1.3-0.6-1.5-1.4l-1-0.1c0.5,0.3,0.8,0.2,1,0.1c-0.2,1.2,0.8,1.2,1.3,1.5c10.6,6.4,22,11.1,33.9,13.9
		c14,3.3,28.3,4,42.5,2.2c15.2-1.9,29.9-7.1,43.3-15.4c4.2-2.6,7.1-6.6,9.8-10.9c7.9-12.9,12.7-27.9,13.9-43.3
		c1.6-18.9-1.1-36.9-9.4-53.7c-7.5-15.8-19.9-28.2-34.9-35.2c-3.5-0.2-6.5-2.2-9.6-3.6c-0.2-0.1-0.4-0.2-0.8-0.4
		c3.4-9.9,6.6-19.8,8-30.7c1.9,2.6,3.1,5.6,3.5,8.9c1.1,7.8-0.2,15.2-2.1,22.6c-0.1,0.2-0.4,0.4,0.2,0.7c2.5-5.6,4-11.7,4.4-17.9
		c0.6-0.2,0.9,0.3,1.3,0.6c13.3,8.8,22.9,21.2,29.9,36.1c6.6,14.2,10.7,29.6,12.1,45.4c2.6,24.5-0.4,49.3-8.6,72.3
		c-2.3,6.3-5.1,12.4-8.2,18.2c-3.4,6.5-8.6,10.8-14.4,14.6c-13.9,9.1-29.4,14.7-45.5,16.6c-14.6,1.7-29.4,0.1-43.4-4.8
		c-0.3-0.1-0.7-0.2-1-0.3l-3.8-1.4c-5.6-2.4-11.1-5.2-16.4-8.4c5.1,3.5,10.5,6.4,16.1,8.7l3.7,1.4c8.5,3.4,17.4,5.5,26.5,6.4
		c14,1.4,28.2-0.2,41.7-4.7c10.7-3.6,20.9-9.1,29.9-16.3c3.4-2.8,6.2-6.2,8.3-10.2c7-12.6,11.3-26.3,14-40.6
		c2.7-14.3,3.6-28.9,2.7-43.5c-1.4-22.4-6.4-43.8-17.4-63.1c-6.5-11.8-15.6-21.8-26.5-29c-0.7-0.4-1.2-1.3-1.2-2.2
		c-0.1-4.3-1.5-8.5-3.9-12c2.4,1,4.7,2.2,7,3.7c1.8,1.1,3.5,2.3,5.2,3.4c0.2,0.1,0.5,0.9,0.9,0.1h0c-0.4,0.6,0.2,0.7,0.4,0.9
		c9,7,15.8,16.4,22.2,26.1c1.6,2.4,2.8,5.2,3.4,8.2c0.8,3.9,1.9,7.7,3.1,11.4c-0.1-2-0.2-4.1-0.4-6.1c-0.5-6.6-1.4-13.2-2.5-19.8
		c-0.6-2.9,1.1-5.8,3.8-6.5c2.8-0.7,5.6,1.2,6.3,4.2c0.8,3.4,1.5,7,2.1,10.5c0.9,6.2,1.6,12.3,2.4,18.5c0.4,2.4-0.5,4.8-2.4,6.1
		c-1.9,1.4-4.4,1.5-6.2,0c-0.4-0.4-0.8-0.8-1.2-1.2c-0.3-0.3-0.5-0.1-0.5,0.3c0.5-1.6-1-2.6-0.9-4c-0.2,1.5,0.5,2.7,0.9,4
		C-1666.8-85.7-1666.3-85.3-1665.9-84.8z M-1814.3,52.1l0.5-0.1l-0.2-0.2L-1814.3,52.1c0.1-0.1,0.3-0.3,0.1-0.5
		c-0.2-0.3-0.3,0-0.5,0.1c0.1-0.1,0.4-0.2,0.2-0.5c-0.2-0.3-0.3,0-0.5,0.1c0.5-0.3,0.2-0.5,0-0.7c-0.2-0.2-0.4-0.5-0.7,0
		c0.1-0.1,0.4-0.2,0.1-0.5c-0.3-0.3-0.3,0.1-0.4,0.2c0.2,0,0.4-0.1,0.3-0.4c0,0-0.1-0.1-0.1-0.1c-0.3,0.1-0.2,0.3-0.2,0.5
		c0.2,0,0.3,0.1,0.3,0.3c0.4,0.1,0.6,0.4,0.7,0.7c0.1,0.1,0.2,0.3,0.3,0.4C-1814.4,51.7-1814.2,51.7-1814.3,52.1z M-1813,52.3
		l-0.5,0.1l0.2,0.2L-1813,52.3c-0.1,0.6-0.1,0.6,0.5,0.8C-1812.6,52.8-1813.1,52.8-1813,52.3z M-1821.1-64
		c9.8-20.7,25.6-32.9,46.2-37.8c16.2-3.8,32.5-3.7,48.7-0.4c12.9,2.4,24.9,8.9,34.6,18.6c5.9,6.1,10.7,13.4,14.3,21.4
		c0.1,0.2,0,0.6,0.4,0.6c0.1-0.3,0.1-0.6-0.1-0.9c-0.1-0.4-0.2-0.7-0.4-1c-10.6-25.1-29-38.6-53.7-42.9c-8.6-1.5-17.2-1.2-25.9-1.1
		c-10,0.1-19.8,2.2-29,6.3c-16.3,7.2-28.2,19.5-35.5,36.9l-0.3,0.7c-0.2,0.4-0.4,0.8-0.5,1.2c-6,15.8-7.3,33.2-3.9,49.8
		c2.3,11.6,7,22.5,13.6,31.8c3.6,5.1,8.6,7.9,13.8,10.4c19.6,9.5,40.1,12.7,61.5,10.5c14-1.4,27.6-5.5,40.2-12.3c4-2,7.6-5,10.4-8.8
		c5.9-8.2,10.2-17.6,12.7-27.7c3.2-12.3,3.7-25.2,1.4-37.8c-0.5-2.7-0.8-5.4-2-7.8l0,0.1c0.4-0.6,0-1.1-0.1-1.7
		c-0.5-2.8-2.4-4.7-3.5-7.2c-2.2-4.9-5-9.4-8.4-13.4c-12.2-14.8-27.9-21.9-45.6-24.5c-7.2-1.1-14.5-0.8-21.8-0.8
		c-11.1-0.2-22.1,1.9-32.5,6.1c-15.7,6.6-27.7,17.7-35.2,34.3c-0.2,0.5-0.5,1.1-0.7,1.6c0-0.6,0.2-1.2,0.4-1.8
		c0.2-0.6,0.4-1.1,0.7-1.7L-1821.1-64z M-1664.3-98.7c2.2,0,4-1.9,4-4.3c0,0,0,0,0-0.1c0-2.4-1.8-4.3-4-4.3c-2.2,0-4,1.9-4,4.3
		C-1668.4-100.6-1666.6-98.7-1664.3-98.7C-1664.4-98.7-1664.3-98.7-1664.3-98.7L-1664.3-98.7z M-1669.8-113.5c0.1,2.4,1.8,4.3,4,4.3
		c2.2-0.1,3.9-2,3.9-4.4c0,0,0,0,0-0.1c0-2.4-1.8-4.3-4-4.3c0,0,0,0-0.1,0C-1668.1-117.9-1669.8-115.9-1669.8-113.5L-1669.8-113.5z
		 M-1666.8-92.3c0,2.4,1.8,4.3,4,4.4l0,0c2.2,0,4-1.9,4-4.3l0,0c0.1-2.3-1.6-4.2-3.8-4.3c-0.1,0-0.1,0-0.2,0c-2.1-0.1-3.9,1.8-4,4.1
		C-1666.8-92.5-1666.8-92.4-1666.8-92.3L-1666.8-92.3z M-1833.2,47.8c0-2.3-1.7-4.5-3.5-4.5c-1.5,0-2.4,1.3-2.4,3.3
		c0,2.3,1.8,4.5,3.6,4.4C-1834.2,51-1833.2,49.6-1833.2,47.8z"/>
	<path id="Trazado_218" class="st1" d="M-1670.6,69.6c-2.4,1.2-4.5,3.1-6.8,4.5c-15.3,9.6-32.1,16.1-49.6,19.2
		c-23.9,4.2-48.5,1.7-71.3-7.3c-0.4-0.1-0.7-0.3-1.2-0.5c3.1-1.4,6.1-2.8,9.1-4.2c0.7-0.2,1.4-0.2,2,0.1c12.5,4.7,25.6,7,38.8,7
		c26.2-0.2,49.6-9.3,70.5-26.3c2.7-2.2,5.5-4,8.9-4c7.5-0.1,11.4,6.8,8,14.1c-1.2,2.5-2.9,4.6-5,6.1c-13.7,10.6-29,18.4-45.3,23
		c-14.9,4.4-30.3,6.3-45.7,5.5c-25.9-1.1-50.9-10.6-71.8-27.4c-2-1.6-4-3-5.5-5.2c-1.6-2.2-2.5-4.9-2.4-7.7c0.2-4.6,3.5-7.7,8-7.8
		c2.9,0,5.7,1,8.1,3c0.3,0.2,0.5,0.6,0.5,1l0-0.1c-0.3-0.1-0.5,0.1-0.4,0.4l0-0.1c-0.4,0.1-0.8,0.2-0.4,0.8l0.1,0
		c-0.7-0.7-0.9,0.3-1.1,0.5c-1.7,1.8-3.2,3.7-4.8,5.5c-0.6,0-0.9-0.8-1.8-0.6c0.9,0.7,1.6,1.3,2.4,1.9c6.1,4.7,12.6,8.9,19.4,12.5
		c1.2,0.6,2.6,1.1,3.4,2.6c0.1,0.2,0.3,0.3,0.6,0.4c2.8-0.4,5.1,1.4,7.5,2.4c18.3,7.3,37.9,10.2,57.4,8.5c22.4-1.8,44-9.8,62.8-23.3
		c2-1.4,3.9-2.9,5.9-4.4c0.2-0.1,0.5-0.2,0.5-0.5c0.4-0.1,0.7-0.2,0.7-0.7c-0.5-0.2-0.7,0.2-0.9,0.5
		C-1670.2,69.2-1670.5,69.2-1670.6,69.6z M-1668.5,68.3l-0.1-0.1c-0.1,0.1-0.1,0.1-0.1,0.2c0,0,0.1,0.1,0.1,0.1L-1668.5,68.3z"/>
	<path id="Trazado_219" class="st1" d="M-1777.5-114.3c-1.8-6.5-3.3-13-4.9-19.5c-0.3-1.4,0.5-1.6,1.3-1.9c7.4-3,15.2-4.6,23.1-4.9
		c7.6-0.2,15.2-0.6,22.8,0.4c6.3,0.8,12.5,2.4,18.5,4.8c-1.4,7.3-3.3,14.3-5.2,21.3C-1740.2-118.2-1759.2-118.3-1777.5-114.3z"/>
	<path id="Trazado_220" class="st1" d="M-1716.3-137.6c-10.7-4.5-21.6-6-32.9-5.7c-4.8,0.1-9.5-0.1-14.3,0.5
		c-6.7,0.7-13.3,2.4-19.7,4.9c-0.8-3.1-1.2-6.4-1.2-9.6c0-0.7,0.7-0.7,1.1-0.9c6.8-2.6,13.9-4.2,21.1-4.7c8.3-0.6,16.7-0.6,25,0
		c7.1,0.6,14,2.1,20.8,4.6c0.8,0.3,1.2,0.6,1.2,1.7C-1715.2-143.8-1715.6-140.7-1716.3-137.6z"/>
	<path id="Trazado_221" class="st1" d="M-1654.1,6.8c-1.8-2.6-2.2-5.6-2.8-8.4c-0.1-0.5,0.4-0.9,0.7-1.2c9.1-12.3,9.1-29.9-0.1-42.2
		c-0.5-0.6-0.7-1.4-0.5-2.2c0.9-4.1,1.5-6,2.8-7.5c1.2,0.8,2.2,1.9,2.9,3.3c3.8,6.1,5.9,13,7.1,20.2c1.8,11,0.5,21.5-4.7,31.2
		C-1650.1,2.6-1651.5,5.1-1654.1,6.8z"/>
	<path id="Trazado_222" class="st1" d="M-1845.2-54.9c1.7,2.7,2.2,5.6,2.8,8.5c0.1,0.6-0.4,0.9-0.7,1.2c-9.1,12.4-9.1,29.9,0,42.3
		c0.3,0.4,0.7,0.6,0.6,1.2c-0.6,2.9-1.1,5.8-2.7,8.3c-1.3-0.6-2.4-1.7-3.1-2.9c-4-5.6-6.6-12.3-7.4-19.4
		c-1.5-12.5,1.1-25.1,7.4-35.7C-1847.5-52.7-1846.5-53.9-1845.2-54.9z"/>
	<path id="Trazado_223" class="st1" d="M-1808.9-134.8l0.7-0.4c-2.9-0.4-11.7,5.1-15,9.3c-0.1,0.1-0.3,0.3-0.2,0.4
		c0.1,0.2,0.4,0.1,0.6,0.1c2.9-0.8,5.5-2.4,8.2-3.9c-3.9,4.1-7.4,8.5-10.7,13.1c0.7-3.5,0.1-6.6-2.5-9c-1.8-1.7-4.2-2.3-6.5-1.7
		c0.7-0.8,1.1-1.5,1.7-2.2c3.3-4.1,6.7-8.2,9.8-12.6c0.3-0.5,0.8-0.9,1.3-1.1c6.8-1.6,13.2-0.9,19,3.4c0.1,0.1,0.1,0.2,0.2,0.4
		c-2,1.4-4,2.9-6,4.3C-1808.4-134.6-1808.6-134.8-1808.9-134.8L-1808.9-134.8z"/>
	<path id="Trazado_224" class="st1" d="M-1676.2-125.8c-3.9-4.5-8.8-7.8-14.2-9.6c-0.2-0.1-0.4-0.2-0.5,0.2h0
		c-0.6,0.4-1-0.1-1.5-0.4c-1.8-1-3.2-2.6-5.2-3.2h0c4.6-3.9,10-5,15.7-4.7c3,0.1,5.7,1.7,7.3,4.4c2.4,3.7,5.4,7,8.2,10.4
		c0.4,0.4,0.7,0.9,1.3,1.7c-2.6-0.8-5.3,0.1-7.1,2.2c-1.9,2.1-2.4,4.8-2.1,7.8c-3.4-4.1-6.5-8.5-10.3-12.2c2.8,1,5.2,3,8.2,3.6
		c0.2,0.1,0.4,0.2,0.5-0.1C-1675.9-125.6-1676.1-125.8-1676.2-125.8z"/>
	<path id="Trazado_225" class="st1" d="M-1833.6-85c-0.5-0.5-0.8,0.1-1.1,0.2c-3.9,1.8-8.3-1.3-7.8-5.8c1.1-10,1.9-20,4.4-29.7
		c0.7-3,3.4-4.9,6.2-4.3c2.8,0.6,4.4,3.4,3.8,6.7c-1.4,7.8-2.1,15.7-2.8,23.6C-1831.2-90.9-1831.6-87.6-1833.6-85L-1833.6-85z
		 M-1833.6-117.9c-2.2,0.1-4,2-4,4.4c0.1,2.4,1.8,4.3,4,4.3c2.2-0.1,3.9-2,4-4.4C-1829.6-116-1831.4-117.9-1833.6-117.9
		L-1833.6-117.9z M-1831.1-102.9c0.1-2.3-1.6-4.3-3.7-4.4c-0.1,0-0.1,0-0.2,0c-2.2-0.1-4,1.8-4.1,4.2c0,0,0,0,0,0.1
		c-0.1,2.4,1.6,4.3,3.8,4.4c0,0,0.1,0,0.1,0c2.1,0.1,3.9-1.7,4-4C-1831.1-102.7-1831.1-102.8-1831.1-102.9L-1831.1-102.9z
		 M-1840.5-92.4c-0.1,2.4,1.7,4.3,3.8,4.4c0,0,0,0,0.1,0c2.2,0,4-1.9,4-4.3c0-2.4-1.7-4.4-3.9-4.4l0,0
		C-1838.7-96.7-1840.5-94.8-1840.5-92.4C-1840.5-92.5-1840.5-92.4-1840.5-92.4L-1840.5-92.4z"/>
	<path id="Trazado_226" class="st1" d="M-1690.7-134.1l0.2,0.1l0-0.1L-1690.7-134.1L-1690.7-134.1z"/>
	<path id="Trazado_227" class="st1" d="M-1690.8-135.2c0.1,0.4,0.1,0.7,0.1,1.1h0C-1690.8-134.5-1690.8-134.9-1690.8-135.2
		L-1690.8-135.2z"/>
	<path id="Trazado_228" class="st1" d="M-1808.9-134.8c0.2,0.4,0,0.4-0.3,0.4l0,0.1C-1808.9-134.4-1808.8-134.6-1808.9-134.8
		L-1808.9-134.8z"/>
	<path id="Trazado_229" class="st1" d="M-1809.1-134.4L-1809.1-134.4C-1809.1-134.3-1809.1-134.3-1809.1-134.4L-1809.1-134.4z"/>
	<path id="Trazado_230" class="st2" d="M-1821.5-63.3c-0.2,0.6-0.4,1.1-0.7,1.7c-0.3,0.5-0.4,1.1-0.4,1.8c0.2-0.5,0.5-1.1,0.7-1.6
		c7.5-16.6,19.5-27.7,35.2-34.3c10.4-4.2,21.4-6.2,32.5-6.1c7.3,0,14.5-0.2,21.8,0.8c17.8,2.6,33.4,9.7,45.6,24.5
		c3.3,4,6.2,8.5,8.4,13.4c1.1,2.4,3,4.4,3.5,7.2c0.1,0.6,0.5,1.1,0.1,1.7c0,0,0.1,0,0.1,0l-0.1-0.1c1.2,2.4,1.5,5.2,2,7.8
		c2.3,12.5,1.8,25.5-1.4,37.8c-2.5,10.1-6.8,19.5-12.7,27.7c-2.8,3.7-6.3,6.7-10.4,8.8c-12.6,6.7-26.2,10.9-40.2,12.3
		c-21.3,2.2-41.8-1-61.5-10.5c-5.2-2.5-10.2-5.3-13.8-10.4c-6.6-9.4-11.3-20.2-13.6-31.8c-3.5-16.7-2.1-34.1,3.9-49.8
		c0.1-0.4,0.3-0.8,0.5-1.2L-1821.5-63.3z M-1822.8-2c0.7,1.7,1.4,3.3,2.1,4.9c2.5,5.6,5.7,10.8,9.5,15.5c3.7,4.5,8.7,6.7,13.7,8.9
		c12.5,5.6,25.8,8.9,39.2,9.8c20,1.4,39.4-1.8,57.9-10.5c4.4-2.1,8.9-4.2,12.2-8.2c4.6-5.6,8.3-11.9,11-18.8
		c0.1-0.3,0.5-0.6,0.1-1.1c-1.1,2.2-2,4.4-3.2,6.5c-3.9,6.9-8,13.6-15.2,17.2c-4.1,2.1-8.4,4-12.7,5.6c-17.8,6.4-36.7,8.5-55.4,6.4
		c-12.5-1.4-24.8-4.8-36.4-10c-6.9-3-12.7-8.3-16.7-15.1C-1818.9,5.4-1820.8,1.7-1822.8-2L-1822.8-2z M-1681.7-16.6
		c-0.2,0.5-0.3,1.1-0.4,1.6c-0.7,4.3-1.9,8.5-3.8,12.4c-4.2,8.5-11,13.2-19.4,15.5c-13.4,3.8-26.9,6.7-40.4,10
		c-2.2,0.5-4.3,1.1-6.5,1.7c2.2,0.1,4.4-0.1,6.5-0.5c12.5-1.8,25-4.3,37.3-7.5c5.6-1.5,11.1-3.3,15.8-7.3
		C-1684.8,2.6-1681.9-6.6-1681.7-16.6L-1681.7-16.6z"/>
	<path id="Trazado_231" class="st2" d="M-1677.4-62.3c-3.5-8-8.4-15.3-14.3-21.4c-9.6-9.7-21.6-16.2-34.6-18.6
		c-16.2-3.2-32.6-3.4-48.7,0.4c-20.6,4.9-36.4,17.1-46.2,37.8l-0.4-0.4c7.3-17.4,19.2-29.6,35.5-36.9c9.2-4,19.1-6.2,29-6.3
		c8.6-0.2,17.3-0.5,25.9,1.1c24.6,4.4,43.1,17.8,53.7,42.9c0.1,0.3,0.2,0.7,0.4,1L-1677.4-62.3z"/>
	<path id="Trazado_232" class="st2" d="M-1664.3-98.7c-2.2,0.1-4-1.8-4-4.2c0,0,0,0,0-0.1c0-2.4,1.8-4.3,4-4.3c2.2,0,4,1.9,4,4.3
		C-1660.3-100.6-1662.1-98.7-1664.3-98.7C-1664.3-98.7-1664.3-98.7-1664.3-98.7z"/>
	<path id="Trazado_233" class="st2" d="M-1669.8-113.5c0-2.4,1.7-4.4,3.9-4.4c2.2,0,4,1.9,4,4.2c0,0,0,0,0,0.1
		c0.1,2.4-1.7,4.4-3.8,4.4c0,0,0,0-0.1,0C-1668-109.2-1669.8-111.1-1669.8-113.5z"/>
	<path id="Trazado_234" class="st2" d="M-1666.8-92.3c-0.1-2.3,1.7-4.2,3.8-4.3c0.1,0,0.1,0,0.2,0c2.1-0.1,3.9,1.8,4,4.1
		c0,0.1,0,0.1,0,0.2c0,2.4-1.8,4.3-4,4.3l0,0C-1665-88-1666.8-89.9-1666.8-92.3C-1666.8-92.3-1666.8-92.3-1666.8-92.3z"/>
	<path id="Trazado_235" class="st2" d="M-1833.2,47.8c0,1.8-0.9,3.2-2.3,3.3c-1.7,0.1-3.5-2.1-3.6-4.4c0-2,0.9-3.3,2.4-3.3
		C-1835,43.3-1833.3,45.5-1833.2,47.8z"/>
	<path id="Trazado_236" class="st2" d="M-1788.4,67.7c-5.6-2.3-11-5.2-16.1-8.7c5.3,3.1,10.8,5.9,16.4,8.4L-1788.4,67.7z"/>
	<path id="Trazado_237" class="st2" d="M-1817,25.5c-1.5-2.4-2.9-4.8-4.4-7.2l0,0.1c0.1-0.5,0.4-0.4,0.5-0.1
		c1.4,2.2,2.7,4.4,4.1,6.5C-1816.5,25.2-1816.6,25.4-1817,25.5L-1817,25.5z"/>
	<path id="Trazado_238" class="st2" d="M-1667.2-86.2c-0.4-1.3-1-2.5-0.9-4C-1668.2-88.7-1666.8-87.7-1667.2-86.2L-1667.2-86.2z"/>
	<path id="Trazado_239" class="st2" d="M-1784.7,69.1l-3.7-1.4l0.2-0.4l3.8,1.4L-1784.7,69.1z"/>
	<path id="Trazado_240" class="st2" d="M-1667.2-86.2c0-0.4,0.2-0.6,0.5-0.3c0.4,0.4,0.8,0.8,1.2,1.2l-0.4,0.4
		C-1666.3-85.3-1666.8-85.8-1667.2-86.2L-1667.2-86.2z"/>
	<path id="Trazado_241" class="st2" d="M-1817.6,46.9c0.1,0.8,0.7,1.5,1.4,1.9h0c-0.7,0.1-1.3-0.4-1.4-1.1
		C-1817.7,47.4-1817.7,47.1-1817.6,46.9L-1817.6,46.9z"/>
	<path id="Trazado_242" class="st2" d="M-1817,25.5c0.6-0.9,0.5,0.2,1,0.1C-1816.6,26.1-1816.6,25.1-1817,25.5L-1817,25.5z"/>
	<path id="Trazado_243" class="st2" d="M-1795.2,72.3c0.1-0.4,0.4-0.6,0.7-0.7c0.3,0.6-0.1,0.9-0.4,1.2L-1795.2,72.3z"/>
	<path id="Trazado_244" class="st2" d="M-1813,52.3c-0.1,0.4,0.4,0.5,0.5,0.9C-1813.1,52.9-1813.1,52.9-1813,52.3L-1813,52.3z"/>
	<path id="Trazado_245" class="st2" d="M-1815.7,50.5c0.2-0.5,0.5-0.2,0.7,0c0.2,0.2,0.5,0.5,0,0.7l0,0
		C-1815.1,50.9-1815.3,50.6-1815.7,50.5L-1815.7,50.5z"/>
	<path id="Trazado_246" class="st2" d="M-1831.8,42.5c0.4,0.3,0.3,0.7,0.1,1.3l-0.4-0.9L-1831.8,42.5z"/>
	<path id="Trazado_247" class="st2" d="M-1788.3-113c0.1,0.3,0.3,0.6-0.1,0.9c-0.1-0.1-0.2-0.3-0.3-0.5L-1788.3-113z"/>
	<path id="Trazado_248" class="st2" d="M-1821.1-64l-0.3,0.7l-0.4-0.4l0.3-0.7L-1821.1-64z"/>
	<path id="Trazado_249" class="st2" d="M-1810.6,31.2c-0.2,0.1-0.4,0.3-1-0.1L-1810.6,31.2L-1810.6,31.2z"/>
	<path id="Trazado_250" class="st2" d="M-1822.2,49c0.2-0.2,0.6-0.1,0.8,0.1l-0.6,0.3L-1822.2,49z"/>
	<path id="Trazado_251" class="st2" d="M-1822,64.1c-0.5-0.6-0.1-0.7,0.4-0.8C-1821.3,63.8-1821.6,64-1822,64.1z"/>
	<path id="Trazado_252" class="st2" d="M-1677.1-62.5c0.2,0.2,0.2,0.6,0.1,0.9c-0.4,0-0.3-0.4-0.4-0.6L-1677.1-62.5z"/>
	<path id="Trazado_253" class="st2" d="M-1814.7,51.7c-0.1-0.1-0.2-0.3-0.3-0.4l0,0c0.2,0,0.2-0.4,0.5-0.1
		C-1814.3,51.5-1814.6,51.5-1814.7,51.7L-1814.7,51.7z"/>
	<path id="Trazado_254" class="st2" d="M-1816,50.2c0-0.2-0.1-0.4,0.2-0.5c0,0,0.1,0.1,0.1,0.1C-1815.6,50.1-1815.8,50.2-1816,50.2
		L-1816,50.2z"/>
	<path id="Trazado_255" class="st2" d="M-1814.3,52.1c0.1-0.4-0.2-0.4-0.4-0.5l0,0c0.2,0,0.2-0.4,0.5-0.1
		C-1814,51.8-1814.2,52-1814.3,52.1L-1814.3,52.1z"/>
	<path id="Trazado_256" class="st2" d="M-1816.3,48.8c0,0.2,0.1,0.4-0.2,0.5c-0.1,0-0.1,0-0.1-0.1
		C-1816.6,48.8-1816.5,48.8-1816.3,48.8L-1816.3,48.8z"/>
	<path id="Trazado_257" class="st2" d="M-1813,52.3l-0.3,0.4l-0.2-0.2C-1813.3,52.4-1813.1,52.4-1813,52.3L-1813,52.3z"/>
	<path id="Trazado_258" class="st2" d="M-1816,50.2c0.1-0.1,0.2-0.4,0.4-0.2c0.3,0.3-0.1,0.3-0.1,0.5l0,0
		C-1815.7,50.3-1815.8,50.2-1816,50.2L-1816,50.2z"/>
	<path id="Trazado_259" class="st2" d="M-1821.7,63.4c-0.1-0.4,0.1-0.5,0.4-0.4C-1821.3,63.2-1821.2,63.6-1821.7,63.4z"/>
	<path id="Trazado_260" class="st2" d="M-1814.3,52.1l0.3-0.4l0.2,0.2C-1814,52-1814.1,52.1-1814.3,52.1L-1814.3,52.1z"/>
	<path id="Trazado_261" class="st2" d="M-1670,69.1c0.2-0.3,0.4-0.6,0.9-0.5c0,0.6-0.3,0.7-0.7,0.7
		C-1669.8,69.3-1669.9,69.2-1670,69.1z"/>
	<path id="Trazado_262" class="st2" d="M-1669.7,69.4c0,0.4-0.3,0.4-0.5,0.5l-0.3-0.3c0.1-0.4,0.4-0.4,0.6-0.5
		C-1669.9,69.2-1669.8,69.3-1669.7,69.4z"/>
	<path id="Trazado_263" class="st2" d="M-1668.5,68.3l-0.1,0.2c0,0-0.1-0.1-0.1-0.1c0-0.1,0.1-0.2,0.1-0.2L-1668.5,68.3z"/>
	<path id="Trazado_264" class="st2" d="M-1822.9-125.5c-0.2,0.1-0.4,0.2-0.6-0.1c0,0,0.2-0.2,0.2-0.4L-1822.9-125.5z"/>
	<path id="Trazado_265" class="st2" d="M-1676.2-125.8c0.1,0.1,0.3,0.2,0.3,0.3c-0.1,0.3-0.3,0.2-0.5,0.1L-1676.2-125.8z"/>
	<path id="Trazado_266" class="st2" d="M-1833.6-117.9c2.2,0,4,1.9,4,4.3c0,2.4-1.8,4.3-4,4.4c-2.2,0-4-1.9-4-4.3
		C-1837.5-115.9-1835.8-117.9-1833.6-117.9z"/>
	<path id="Trazado_267" class="st2" d="M-1831.1-102.9c0,2.3-1.7,4.2-3.9,4.2c-0.1,0-0.1,0-0.2,0c-2.2,0-3.9-1.9-3.9-4.3
		c0,0,0-0.1,0-0.1c0-2.4,1.8-4.3,4-4.2c0,0,0,0,0.1,0c2.1,0,3.9,1.9,3.9,4.2C-1831.1-103-1831.1-102.9-1831.1-102.9z"/>
	<path id="Trazado_268" class="st2" d="M-1840.5-92.4c0-2.4,1.8-4.2,3.9-4.2c0,0,0.1,0,0.1,0c2.2,0,4,2,3.9,4.4l0,0
		c-0.1,2.4-1.9,4.3-4,4.3C-1838.8-88-1840.5-90-1840.5-92.4C-1840.5-92.4-1840.5-92.4-1840.5-92.4z"/>
	<path id="Trazado_269" class="st1" d="M-1822.8-2c2,3.7,3.9,7.4,6,11c3.9,6.8,9.8,12.1,16.7,15.1c11.6,5.2,23.9,8.6,36.4,10
		c18.7,2.2,37.6,0,55.4-6.4c4.3-1.6,8.6-3.5,12.7-5.6c7.2-3.5,11.3-10.3,15.2-17.2c1.2-2.1,2.1-4.3,3.2-6.5c0.4,0.4,0,0.7-0.1,1.1
		c-2.7,6.9-6.4,13.2-11,18.8c-3.3,4-7.7,6.2-12.2,8.2c-18.5,8.7-37.8,11.8-57.9,10.5c-13.5-0.9-26.8-4.2-39.2-9.8
		c-5-2.2-10-4.5-13.7-8.9c-3.8-4.7-7-9.9-9.5-15.5C-1821.4,1.3-1822.1-0.3-1822.8-2z"/>
	<path id="Trazado_270" class="st1" d="M-1681.7-16.6c-0.2,10.1-3.1,19.2-10.9,25.9c-4.6,4-10.2,5.8-15.8,7.3
		c-12.3,3.2-24.7,5.7-37.3,7.5c-2.1,0.4-4.3,0.6-6.5,0.5c2.2-0.6,4.3-1.1,6.5-1.7c13.5-3.4,27-6.2,40.4-10c8.4-2.4,15.2-7,19.4-15.5
		c1.9-3.9,3.1-8.1,3.8-12.4C-1682-15.6-1681.9-16.1-1681.7-16.6z"/>
	<path id="Trazado_271" class="st1" d="M-1674.6-54.2L-1674.6-54.2C-1674.6-54.2-1674.6-54.2-1674.6-54.2
		C-1674.7-54.1-1674.6-54.2-1674.6-54.2z"/>
</g>
</svg>
