<?xml version="1.0" encoding="utf-8"?>
<!-- Generator: Adobe Illustrator 23.0.0, SVG Export Plug-In . SVG Version: 6.00 Build 0)  -->
<svg version="1.1" id="Capa_1" xmlns="http://www.w3.org/2000/svg" xmlns:xlink="http://www.w3.org/1999/xlink" x="0px" y="0px"
	 viewBox="0 0 1200 1200" style="enable-background:new 0 0 1200 1200;" xml:space="preserve">
<style type="text/css">
	.st0{fill:#D1E9F6;}
	.st1{fill:#E3F1F9;}
	.st2{fill:#BD5A52;}
	.st3{fill:#31B0D3;}
	.st4{fill:#1D96D2;}
</style>
<g id="Grupo_83" transform="translate(341.868 -510.445) rotate(8)">
	<path id="Trazado_166" class="st0" d="M380.54,1063.43c-37.05,33.05-60.47,51.54-96.37,74.31c-31.82,24.07-66.77,43.14-101.26,63.7
		l-0.31-0.17l-2.93-1.99c-2.1-1.4-3.72-2.81-5.76-3.97c-15.8-12.55-31.6-25.11-49.19-39.09c21.66-25.89,39.58-54.86,63.55-75.92
		c0,0,4.42-18.71-4.16-21.71c-24.59,28.71-49.53,57.85-74.33,86.83l-50.73-32.13l-10.65-8.3c9.59-35.28,21.67-64.47,36.8-103.4
		c11.15-21.94,21.76-44.15,33.57-65.79c27.51-50.37,65.06-94.04,107.01-134.66c29.47-22.98,53.15-43.1,86.81-61.04
		c6.56-3.49,13.11-7.19,24.72-13.16c55.1,41.91,111.13,83.8,169.52,121.78c-13.27,59.73-42.77,108.97-80.31,161.32
		C401.06,1041.92,408.88,1032.6,380.54,1063.43"/>
	<path id="Trazado_167" class="st1" d="M253.02,883.29c0.31,46.03,39.94,82.68,89.44,82.73c50.06,0.05,90.61-37.89,90.36-84.54
		c-0.24-45.51-40.24-82.26-89.9-82.62C292.59,798.5,252.69,835.97,253.02,883.29z"/>
	<path id="Trazado_168" class="st2" d="M183.4,1201.44c34.49-20.56,69.44-39.63,101.26-63.69c11.96,57.67-14.48,112.39-44.13,145.67
		c-7.47,7.95-14.8,13.3-23.8,20.95C204.87,1268.14,190.55,1235.89,183.4,1201.44z"/>
	<path id="Trazado_169" class="st2" d="M86.2,1001.59c-14.78,38.19-27.21,68.12-36.8,103.4c-37.24,1.69-74.18-1.41-112.26-5.3
		C-29.87,1043.76,10.29,999.46,86.2,1001.59z"/>
	<path id="Trazado_170" class="st2" d="M59.79,1113.29l50.73,32.13c24.81-28.98,49.75-58.12,74.33-86.83
		c5.34,1.77,10.31,4.49,14.67,8.05c0,0-5.37,8.25-10.51,13.67c-22.56,23.78-41.88,50.03-63.55,75.92
		c17.59,13.98,33.39,26.54,49.19,39.09c-9,11.39-18.27,10.59-29.13,1.66c-9.81-8.07-26.11-13.38-35.68-20.17
		c-6.6,2.22-31.42,29.96-31.42,29.96c-3.68,0.71-6.52-4.76-11.83-6.18c11.44-14.53,20.04-25.46,28.84-36.64
		c-8.56-11.51-20.74-18.24-31.91-25.66C51.91,1130.57,51.04,1122.9,59.79,1113.29z"/>
	<path id="Trazado_171" class="st2" d="M506.82,848.73c-58.38-37.99-114.42-79.88-169.52-121.79c5.46-2.93,10.45-5.31,14.99-7.56
		c53.99-24.34,105.75-44.42,167.98-48.84C529.83,732.11,527.46,790.96,506.82,848.73z"/>
	<path id="Trazado_172" class="st2" d="M253.02,883.29c-0.33-47.32,39.57-84.79,89.9-84.43c49.66,0.35,89.66,37.11,89.9,82.62
		c0.24,46.66-40.3,84.59-90.36,84.54C292.96,965.98,253.33,929.33,253.02,883.29z M367.78,939.61
		c38.23-11.21,48.06-47.78,40.03-74.93c-9.1-30.78-45.47-49.94-77.9-42.34c-43.35,9.43-64.8,43.19-52.08,81.95
		C288.5,936.79,330.86,953.43,367.78,939.61z"/>
	<path id="Trazado_173" class="st3" d="M329.91,822.33c32.43-7.6,68.81,11.56,77.9,42.34c8.03,27.15-1.8,63.72-40.04,74.94
		c-5.6-8.54-11.27-17.04-16.76-25.63C332.87,885.63,322.62,855.7,329.91,822.33z"/>
	<path id="Trazado_174" class="st4" d="M330,822.33c-7.29,33.37,2.96,63.3,21.1,91.65c5.5,8.59,11.16,17.09,16.76,25.63
		c-36.91,13.82-79.27-2.82-89.94-35.33C265.2,865.52,286.65,831.77,330,822.33z"/>
</g>
</svg>
