<?xml version="1.0" encoding="utf-8"?>
<!-- Generator: Adobe Illustrator 22.1.0, SVG Export Plug-In . SVG Version: 6.00 Build 0)  -->
<svg version="1.1" id="Capa_1" xmlns="http://www.w3.org/2000/svg" xmlns:xlink="http://www.w3.org/1999/xlink" x="0px" y="0px"
	 viewBox="0 0 101.8 98.3" style="enable-background:new 0 0 101.8 98.3;" xml:space="preserve">
<style type="text/css">
	.st0{fill:#95CCF0;}
	.st1{fill:#FFFFFF;}
</style>
<path id="Trazado_215" class="st0" d="M0,92.4c0,0,1.8-0.1,4.7-0.5c2.8-0.4,2.7,0,9.5,1.6c6.8,1.6,8.9,1.8,15.2,1.7
	s13.9-0.2,19.5-0.8c5.7-0.6,12.2-1.6,17.2-0.9c5,0.8,3.9,0.7,12.6,2.1S93.5,94.9,97,95c3.5,0.1,4.8,0.2,4.8,0.2v2.6H0V92.4z"/>
<path id="Trazado_214" class="st1" d="M0,93.1c0,0,1.8-0.1,4.7-0.5c2.8-0.4,2.7,0,9.5,1.6c6.8,1.6,8.9,1.8,15.2,1.7
	s13.9-0.2,19.5-0.8c5.7-0.6,12.2-1.6,17.2-0.9S70,95,78.7,96.3s14.7-0.7,18.3-0.6c3.6,0,4.8,0.2,4.8,0.2v2.6H0V93.1z"/>
</svg>
