<?xml version="1.0" encoding="utf-8"?>
<!-- Generator: Adobe Illustrator 22.1.0, SVG Export Plug-In . SVG Version: 6.00 Build 0)  -->
<svg version="1.1" id="Capa_1" xmlns="http://www.w3.org/2000/svg" xmlns:xlink="http://www.w3.org/1999/xlink" x="0px" y="0px"
	 viewBox="0 0 127 98.3" style="enable-background:new 0 0 127 98.3;" xml:space="preserve">
<style type="text/css">
	.st0{fill:#95CCF0;}
	.st1{fill:#FFFFFF;}
</style>
<path id="Trazado_204" class="st0" d="M0,0.6v4c0,0,1.2,3.3,8.5,2.8C15.8,7,18,5.3,21.7,4s8-3.6,14.7,0.6s8.3,5.7,14.5,6.6
	c6.3,0.9,18.5-0.8,28.7-3.8s20.3-3.3,27-2.1c6.7,1.2,5.3,1.2,9.5,2.1c4.2,0.9,10.9-2.1,10.9-2.1V0.6H0z"/>
<path id="Trazado_203" class="st1" d="M0,0v4c0,0,1.2,3.3,8.5,2.8c7.3-0.5,9.6-2.1,13.3-3.4s8-3.6,14.7,0.6s8.3,5.7,14.5,6.6
	c6.3,0.9,18.5-0.8,28.7-3.8s20.3-3.3,27-2.1c6.7,1.2,5.3,1.2,9.5,2.1c4.2,0.9,10.9-2.1,10.9-2.1V0H0z"/>
</svg>
