<?xml version="1.0" encoding="utf-8"?>
<!-- Generator: Adobe Illustrator 22.1.0, SVG Export Plug-In . SVG Version: 6.00 Build 0)  -->
<svg version="1.1" id="Capa_1" xmlns="http://www.w3.org/2000/svg" xmlns:xlink="http://www.w3.org/1999/xlink" x="0px" y="0px"
	 viewBox="0 0 94.7 98.3" style="enable-background:new 0 0 94.7 98.3;" xml:space="preserve">
<style type="text/css">
	.st0{fill:#95CCF0;}
	.st1{fill:#FFFFFF;}
</style>
<path id="Trazado_202" class="st0" d="M0,96.3c0,0,2.6-2.8,7.5-3s7.4,1.2,13.6,1.6c6.2,0.4,10.5,0.4,13.6,0
	c3.1-0.4,11.4-3.2,14.8-2.8c3.5,0.4,3,0.5,10.3,1.9c7.3,1.5,5.3,1.5,13.4,2.4s14.5-0.6,17-0.4c2.5,0.2,4.4,1,4.4,1V98H0V96.3z"/>
<path id="Trazado_201" class="st1" d="M0,96.6c0,0,2.6-2.8,7.5-3s7.4,1.2,13.6,1.6c6.2,0.4,10.5,0.4,13.6,0
	c3.1-0.4,11.4-3.2,14.8-2.8c3.5,0.4,3,0.5,10.3,1.9c7.3,1.5,5.3,1.5,13.4,2.4c8.1,0.9,14.5-0.6,17-0.4c2.5,0.2,4.4,1,4.4,1v0.8H0
	V96.6z"/>
</svg>
