<?xml version="1.0" encoding="utf-8"?>
<!-- Generator: Adobe Illustrator 22.1.0, SVG Export Plug-In . SVG Version: 6.00 Build 0)  -->
<svg version="1.1" id="Capa_1" xmlns="http://www.w3.org/2000/svg" xmlns:xlink="http://www.w3.org/1999/xlink" x="0px" y="0px"
	 viewBox="0 0 174.5 98.3" style="enable-background:new 0 0 174.5 98.3;" xml:space="preserve">
<style type="text/css">
	.st0{fill:#95CCF0;}
	.st1{fill:#FFFFFF;}
</style>
<path id="Trazado_200" class="st0" d="M174.5,1.4v16.8c0,0-11.2,10.8-21.5,10.3c-10.4-0.6-13.1-1.1-21-6.8s-11.4-12.3-19.7-12
	s-12.9,11.1-20.9,8.6s-12.2-6-17.7-8.6c-5.4-2.6-13.9-4.8-18.7-3.7s-14.9,10-21,10s-14.9-1.7-20.7-2.9S0,13.6,0,13.6V1.5L174.5,1.4z
	"/>
<path id="Trazado_199" class="st1" d="M174.5,0v16.8c0,0-11.2,10.8-21.5,10.3c-10.4-0.6-13.1-1.1-21-6.8S120.6,8,112.3,8.3
	c-8.3,0.3-12.9,11.1-20.9,8.6c-8-2.6-12.2-6-17.7-8.6c-5.4-2.6-13.9-4.8-18.7-3.7s-14.9,10-21,10s-14.9-1.7-20.7-2.9S0,12.3,0,12.3
	V0.2L174.5,0z"/>
</svg>
